<svg xmlns="http://www.w3.org/2000/svg" xmlns:xlink="http://www.w3.org/1999/xlink" contentStyleType="text/css" height="910px" preserveAspectRatio="none" style="width:715px;height:910px;background:#FFFFFF;" version="1.1" viewBox="0 0 715 910" width="715px" zoomAndPan="magnify"><defs/><g><!--cluster RaspberryPi--><g id="cluster_RaspberryPi"><path d="M75.5,478 L538.5,478 A12.5,12.5 0 0 1 551,490.5 L551,499.2969 L63,499.2969 L63,490.5 A12.5,12.5 0 0 1 75.5,478 " fill="#F1F1F1" style="stroke:#F1F1F1;stroke-width:1.0;"/><rect fill="none" height="426" rx="12.5" ry="12.5" style="stroke:#181818;stroke-width:0.5;" width="488" x="63" y="478"/><line style="stroke:#181818;stroke-width:0.5;" x1="63" x2="551" y1="499.2969" y2="499.2969"/><text fill="#000000" font-family="sans-serif" font-size="14" lengthAdjust="spacing" textLength="88.5664" x="263" y="494.9951">Raspberry Pi</text></g><!--cluster Arduino--><g id="cluster_Arduino"><path d="M19.5,7 L547.5,7 A12.5,12.5 0 0 1 560,19.5 L560,28.2969 L7,28.2969 L7,19.5 A12.5,12.5 0 0 1 19.5,7 " fill="#F1F1F1" style="stroke:#F1F1F1;stroke-width:1.0;"/><rect fill="none" height="422" rx="12.5" ry="12.5" style="stroke:#181818;stroke-width:0.5;" width="553" x="7" y="7"/><line style="stroke:#181818;stroke-width:0.5;" x1="7" x2="560" y1="28.2969" y2="28.2969"/><text fill="#000000" font-family="sans-serif" font-size="14" lengthAdjust="spacing" textLength="54.4209" x="256.5" y="23.9951">Arduino</text></g><rect fill="#F1F1F1" height="40" rx="12.5" ry="12.5" style="stroke:#181818;stroke-width:0.5;" width="92.6123" x="78.69" y="513"/><text fill="#000000" font-family="sans-serif" font-size="14" lengthAdjust="spacing" textLength="82.6123" x="83.69" y="537.8467">TakePicture</text><rect fill="#F1F1F1" height="40" rx="12.5" ry="12.5" style="stroke:#181818;stroke-width:0.5;" width="86.8291" x="206.59" y="513"/><text fill="#000000" font-family="sans-serif" font-size="14" lengthAdjust="spacing" textLength="76.8291" x="211.59" y="537.8467">CropImage</text><rect fill="#F1F1F1" height="40" rx="12.5" ry="12.5" style="stroke:#181818;stroke-width:0.5;" width="107.5078" x="427.25" y="513"/><text fill="#000000" font-family="sans-serif" font-size="14" lengthAdjust="spacing" textLength="97.5078" x="432.25" y="537.8467">ProcessImage</text><rect fill="#F1F1F1" height="40" rx="12.5" ry="12.5" style="stroke:#181818;stroke-width:0.5;" width="90.2607" x="180.87" y="630"/><text fill="#000000" font-family="sans-serif" font-size="14" lengthAdjust="spacing" textLength="80.2607" x="185.87" y="654.8467">HashBinary</text><rect fill="#F1F1F1" height="40" rx="12.5" ry="12.5" style="stroke:#181818;stroke-width:0.5;" width="72.9316" x="420.53" y="630"/><text fill="#000000" font-family="sans-serif" font-size="14" lengthAdjust="spacing" textLength="62.9316" x="425.53" y="654.8467">QueryDB</text><rect fill="#F1F1F1" height="40" rx="12.5" ry="12.5" style="stroke:#181818;stroke-width:0.5;" width="57.3799" x="329.31" y="747"/><text fill="#000000" font-family="sans-serif" font-size="14" lengthAdjust="spacing" textLength="47.3799" x="334.31" y="771.8467">Unlock</text><rect fill="#F1F1F1" height="40" rx="12.5" ry="12.5" style="stroke:#181818;stroke-width:0.5;" width="52.7041" x="430.65" y="848"/><text fill="#000000" font-family="sans-serif" font-size="14" lengthAdjust="spacing" textLength="42.7041" x="435.65" y="872.8467">Buffer</text><ellipse cx="298" cy="52" fill="#222222" rx="10" ry="10" style="stroke:#222222;stroke-width:1.0;"/><rect fill="#F1F1F1" height="40" rx="12.5" ry="12.5" style="stroke:#181818;stroke-width:0.5;" width="50" x="273" y="139"/><text fill="#000000" font-family="sans-serif" font-size="14" lengthAdjust="spacing" textLength="25.5186" x="285.2407" y="163.8467">Idle</text><rect fill="#F1F1F1" height="40" rx="12.5" ry="12.5" style="stroke:#181818;stroke-width:0.5;" width="76.7256" x="22.64" y="256"/><text fill="#000000" font-family="sans-serif" font-size="14" lengthAdjust="spacing" textLength="66.7256" x="27.64" y="280.8467">ScanRFID</text><rect fill="#F1F1F1" height="40" rx="12.5" ry="12.5" style="stroke:#181818;stroke-width:0.5;" width="83.6709" x="254.16" y="256"/><text fill="#000000" font-family="sans-serif" font-size="14" lengthAdjust="spacing" textLength="73.6709" x="259.16" y="280.8467">ReadBlock</text><rect fill="#F1F1F1" height="40" rx="12.5" ry="12.5" style="stroke:#181818;stroke-width:0.5;" width="88.9141" x="455.54" y="256"/><text fill="#000000" font-family="sans-serif" font-size="14" lengthAdjust="spacing" textLength="78.9141" x="460.54" y="280.8467">VerifyBlock</text><rect fill="#F1F1F1" height="40" rx="12.5" ry="12.5" style="stroke:#181818;stroke-width:0.5;" width="59.6699" x="191.17" y="373"/><text fill="#000000" font-family="sans-serif" font-size="14" lengthAdjust="spacing" textLength="49.6699" x="196.17" y="397.8467">Locked</text><rect fill="#F1F1F1" height="40" rx="12.5" ry="12.5" style="stroke:#181818;stroke-width:0.5;" width="83.1377" x="412.43" y="373"/><text fill="#000000" font-family="sans-serif" font-size="14" lengthAdjust="spacing" textLength="73.1377" x="417.43" y="397.8467">HashBlock</text><!--link TakePicture to CropImage--><g id="link_TakePicture_CropImage"><path d="M171.39,533 C182.95,533 188.52,533 200.09,533 " fill="none" id="TakePicture-to-CropImage" style="stroke:#181818;stroke-width:1.0;"/><polygon fill="#181818" points="206.09,533,197.09,529,201.09,533,197.09,537,206.09,533" style="stroke:#181818;stroke-width:1.0;"/></g><!--link CropImage to ProcessImage--><g id="link_CropImage_ProcessImage"><path d="M293.72,533 C331.52,533 380.32,533 420.88,533 " fill="none" id="CropImage-to-ProcessImage" style="stroke:#181818;stroke-width:1.0;"/><polygon fill="#181818" points="426.88,533,417.88,529,421.88,533,417.88,537,426.88,533" style="stroke:#181818;stroke-width:1.0;"/><text fill="#000000" font-family="sans-serif" font-size="13" lengthAdjust="spacing" textLength="97.8301" x="311.83" y="526.0669">Get LED Matrix</text></g><!--link ProcessImage to HashBinary--><g id="link_ProcessImage_HashBinary"><path d="M438.03,553.38 C391.05,574.57 321.6695,605.8532 274.6195,627.0732 " fill="none" id="ProcessImage-to-HashBinary" style="stroke:#181818;stroke-width:1.0;"/><polygon fill="#181818" points="269.15,629.54,278.9987,629.4861,273.7079,627.4844,275.7097,622.1935,269.15,629.54" style="stroke:#181818;stroke-width:1.0;"/><text fill="#000000" font-family="sans-serif" font-size="13" lengthAdjust="spacing" textLength="92.4663" x="369.77" y="596.0669">Extract Binary</text></g><!--link HashBinary to QueryDB--><g id="link_HashBinary_QueryDB"><path d="M271.36,650 C314.85,650 373.7,650 414.11,650 " fill="none" id="HashBinary-to-QueryDB" style="stroke:#181818;stroke-width:1.0;"/><polygon fill="#181818" points="420.11,650,411.11,646,415.11,650,411.11,654,420.11,650" style="stroke:#181818;stroke-width:1.0;"/><text fill="#000000" font-family="sans-serif" font-size="13" lengthAdjust="spacing" textLength="113.915" x="289.33" y="643.0669">Secure User Data</text></g><!--link QueryDB to Unlock--><g id="link_QueryDB_Unlock"><path d="M420.11,667.67 C405.88,675.68 390.53,686.51 380,700 C369.37,713.61 364.9531,726.7319 362.0631,740.8519 " fill="none" id="QueryDB-to-Unlock" style="stroke:#181818;stroke-width:1.0;"/><polygon fill="#181818" points="360.86,746.73,366.5834,738.7149,361.8626,741.8315,358.7459,737.1107,360.86,746.73" style="stroke:#181818;stroke-width:1.0;"/><text fill="#000000" font-family="sans-serif" font-size="13" lengthAdjust="spacing" textLength="66.0981" x="381" y="713.0669">Valid User</text></g><!--link QueryDB to Buffer--><g id="link_QueryDB_Buffer"><path d="M457,670.17 C457,711.05 457,800.44 457,841.56 " fill="none" id="QueryDB-to-Buffer" style="stroke:#181818;stroke-width:1.0;"/><polygon fill="#181818" points="457,847.56,461,838.56,457,842.56,453,838.56,457,847.56" style="stroke:#181818;stroke-width:1.0;"/><text fill="#000000" font-family="sans-serif" font-size="13" lengthAdjust="spacing" textLength="76.9717" x="458" y="771.5669">Invalid User</text></g><!--link *start*Arduino to Idle--><g id="link_*start*Arduino_Idle"><path d="M298,62.32 C298,79.38 298,109.98 298,132.64 " fill="none" id="*start*Arduino-to-Idle" style="stroke:#181818;stroke-width:1.0;"/><polygon fill="#181818" points="298,138.64,302,129.64,298,133.64,294,129.64,298,138.64" style="stroke:#181818;stroke-width:1.0;"/><text fill="#000000" font-family="sans-serif" font-size="13" lengthAdjust="spacing" textLength="82.5322" x="299" y="105.0669">System Boot</text></g><!--link Idle to Idle--><g id="link_Idle_Idle"><path d="M323.28,149.1 C340.77,146.1 358,149.4 358,159 C358,168.6 346.6836,172.9143 329.1936,169.9143 " fill="none" id="Idle-to-Idle" style="stroke:#181818;stroke-width:1.0;"/><polygon fill="#181818" points="323.28,168.9,331.4742,174.3639,328.208,169.7453,332.8267,166.4791,323.28,168.9" style="stroke:#181818;stroke-width:1.0;"/><text fill="#000000" font-family="sans-serif" font-size="13" lengthAdjust="spacing" textLength="112.3345" x="364" y="163.5669">Waiting For Input</text></g><!--link Idle to ScanRFID--><g id="link_Idle_ScanRFID"><path d="M272.64,172.31 C231.2,192.41 154.1184,229.8214 105.2584,253.5214 " fill="none" id="Idle-to-ScanRFID" style="stroke:#181818;stroke-width:1.0;"/><polygon fill="#181818" points="99.86,256.14,109.7034,255.8111,104.3587,253.9579,106.2119,248.6132,99.86,256.14" style="stroke:#181818;stroke-width:1.0;"/><text fill="#000000" font-family="sans-serif" font-size="13" lengthAdjust="spacing" textLength="94.085" x="194.69" y="222.0669">RFID Detected</text></g><!--link ScanRFID to ReadBlock--><g id="link_ScanRFID_ReadBlock"><path d="M99.81,276 C142.3,276 204.22,276 247.96,276 " fill="none" id="ScanRFID-to-ReadBlock" style="stroke:#181818;stroke-width:1.0;"/><polygon fill="#181818" points="253.96,276,244.96,272,248.96,276,244.96,280,253.96,276" style="stroke:#181818;stroke-width:1.0;"/><text fill="#000000" font-family="sans-serif" font-size="13" lengthAdjust="spacing" textLength="118.5425" x="117.76" y="269.0669">Read Tag Memory</text></g><!--link ReadBlock to VerifyBlock--><g id="link_ReadBlock_VerifyBlock"><path d="M338.27,276 C372.46,276 414.49,276 449.31,276 " fill="none" id="ReadBlock-to-VerifyBlock" style="stroke:#181818;stroke-width:1.0;"/><polygon fill="#181818" points="455.31,276,446.31,272,450.31,276,446.31,280,455.31,276" style="stroke:#181818;stroke-width:1.0;"/><text fill="#000000" font-family="sans-serif" font-size="13" lengthAdjust="spacing" textLength="81.7324" x="356.19" y="269.0669">Extract Data</text></g><!--link VerifyBlock to Locked--><g id="link_VerifyBlock_Locked"><path d="M455.26,292.21 C428.81,301.46 394.76,313.8 365,326 C325.18,342.32 285.6389,360.7531 256.7089,374.6431 " fill="none" id="VerifyBlock-to-Locked" style="stroke:#181818;stroke-width:1.0;"/><polygon fill="#181818" points="251.3,377.24,261.1446,376.9505,255.8074,375.0759,257.682,369.7387,251.3,377.24" style="stroke:#181818;stroke-width:1.0;"/><text fill="#000000" font-family="sans-serif" font-size="13" lengthAdjust="spacing" textLength="99.6074" x="366" y="339.0669">Invalid Schema</text></g><!--link Locked to Locked--><g id="link_Locked_Locked"><path d="M251.01,382.72 C268.95,380.43 285.83,383.86 285.83,393 C285.83,402.14 274.9017,406.3297 256.9617,404.0397 " fill="none" id="Locked-to-Locked" style="stroke:#181818;stroke-width:1.0;"/><polygon fill="#181818" points="251.01,403.28,259.4311,408.3874,255.9698,403.9131,260.444,400.4518,251.01,403.28" style="stroke:#181818;stroke-width:1.0;"/><text fill="#000000" font-family="sans-serif" font-size="13" lengthAdjust="spacing" textLength="97.335" x="291.83" y="397.5669">Awaiting Reset</text></g><!--link VerifyBlock to HashBlock--><g id="link_VerifyBlock_HashBlock"><path d="M492.3,296.25 C483.81,317.48 472.4606,345.87 463.9506,367.12 " fill="none" id="VerifyBlock-to-HashBlock" style="stroke:#181818;stroke-width:1.0;"/><polygon fill="#181818" points="461.72,372.69,468.7792,365.8221,463.5788,368.0484,461.3526,362.848,461.72,372.69" style="stroke:#181818;stroke-width:1.0;"/><text fill="#000000" font-family="sans-serif" font-size="13" lengthAdjust="spacing" textLength="88.7339" x="480.75" y="339.0669">Valid Schema</text></g><!--link HashBlock to TakePicture--><g id="link_HashBlock_TakePicture"><path d="M432.54,413.45 C421.96,421.99 408.57,431.35 395,437 C309.39,472.62 271.91,428.49 189,470 C169.08,479.97 155.146,493.7181 143.416,507.8881 " fill="none" id="HashBlock-to-TakePicture" style="stroke:#181818;stroke-width:1.0;"/><polygon fill="#181818" points="139.59,512.51,148.4103,508.1279,142.7783,508.6584,142.2478,503.0265,139.59,512.51" style="stroke:#181818;stroke-width:1.0;"/><text fill="#000000" font-family="sans-serif" font-size="13" lengthAdjust="spacing" textLength="117.0254" x="371.67" y="458.0669">Send Secure Data</text></g><!--link Unlock to Buffer--><g id="link_Unlock_Buffer"><path d="M377.09,787.09 C394.51,804.51 415.8874,825.8874 433.3874,843.3874 " fill="none" id="Unlock-to-Buffer" style="stroke:#181818;stroke-width:1.0;"/><polygon fill="#181818" points="437.63,847.63,434.0945,838.4376,434.0945,844.0945,428.4376,844.0945,437.63,847.63" style="stroke:#181818;stroke-width:1.0;"/></g><!--link Buffer to Idle--><g id="link_Buffer_Idle"><path d="M483.8,861.82 C526.45,851.85 605,825.65 605,768 C605,275 605,275 605,275 C605,215.03 402.8621,176.8237 329.3021,164.8537 " fill="none" id="Buffer-to-Idle" style="stroke:#181818;stroke-width:1.0;"/><polygon fill="#181818" points="323.38,163.89,331.6207,169.2836,328.3151,164.6931,332.9056,161.3874,323.38,163.89" style="stroke:#181818;stroke-width:1.0;"/><text fill="#000000" font-family="sans-serif" font-size="13" lengthAdjust="spacing" textLength="101.6577" x="606" y="537.5669">1 Second Delay</text></g><!--SRC=[RP9DJyCm38Rl-nKMHwGXSTq1QQKRLDgaqh9nG1n2uctHsgPAN5Y5-EyaMVene9ScVX-xjjyUf430igOM11gkPKrILPE98KO8LnapzJjgtK8ghu0Pw0EfXAy9sEUP7J6Ld1gDCBs3Uwtgf6Hxz69_SrAg5KTZplSPF231QX73cf6M9uzV45ERyiZC8P8LimtCO74YpJZ1EU0JHhgbdnhKRHnPD4Vk-jaOr10pOXxkP5TuKnMA7osvPOKK7lp3HCrkP_Dda5GV0_NTBMUkHICh5TRmUltcaqBq9X656p9l3M49aLBaCHzsND1Vc2HPxM6fjFrCtVoYSiwgR9d4blIl60aveV1KBremGoQYC98xMrlsiCPIXKKDkeMtgEMkxV1khVsUnh9hOcKFA4PxoFa1opCRj0ji_Xc6oj0W_LlI-tRXmAZc83fq_7yvOolHkTit7CmSFFFHODzesRSkKza2CHQiTKvEVW00]--></g></svg>